<svg width="16" height="14" viewBox="0 0 16 14" fill="none" xmlns="http://www.w3.org/2000/svg">
<path d="M8.0613 11.8638L7.98259 11.9401L7.89601 11.8638C4.15739 8.57548 1.68597 6.40109 1.68597 4.19619C1.68597 2.6703 2.86659 1.52589 4.44074 1.52589C5.65284 1.52589 6.83346 2.28883 7.25061 3.32643H8.71457C9.13172 2.28883 10.3123 1.52589 11.5244 1.52589C13.0986 1.52589 14.2792 2.6703 14.2792 4.19619C14.2792 6.40109 11.8078 8.57548 8.0613 11.8638ZM11.5244 0C10.1549 0 8.8405 0.617984 7.98259 1.58692C7.12467 0.617984 5.81026 0 4.44074 0C2.01654 0 0.111816 1.83869 0.111816 4.19619C0.111816 7.07248 2.78788 9.42997 6.84133 12.9929L7.98259 14L9.12385 12.9929C13.1773 9.42997 15.8534 7.07248 15.8534 4.19619C15.8534 1.83869 13.9486 0 11.5244 0Z" fill="#3573E0"/>
</svg>
